{
  "accessors": [
    {
      "bufferView": 2,
      "componentType": 5126,
      "count": 65532,
      "max": [
        0.4683014154434204,
        0.37451815605163574,
        0.03856059908866882
      ],
      "min": [
        -0.43652328848838806,
        -1.3069087266921997,
        -0.8644891381263733
      ],
      "type": "VEC3"
    },
    {
      "bufferView": 2,
      "byteOffset": 786384,
      "componentType": 5126,
      "count": 65532,
      "max": [
        1.0,
        1.0,
        1.0
      ],
      "min": [
        -1.0,
        -1.0,
        -1.0
      ],
      "type": "VEC3"
    },
    {
      "bufferView": 1,
      "componentType": 5126,
      "count": 65532,
      "max": [
        1.000016450881958,
        0.9368280172348022
      ],
      "min": [
        0.0019805030897259712,
        -0.0007212115451693535
      ],
      "type": "VEC2"
    },
    {
      "bufferView": 0,
      "componentType": 5125,
      "count": 145074,
      "type": "SCALAR"
    },
    {
      "bufferView": 2,
      "byteOffset": 1572768,
      "componentType": 5126,
      "count": 23471,
      "max": [
        0.4394308626651764,
        -0.497174471616745,
        0.0003802941064350307
      ],
      "min": [
        -0.4290649890899658,
        -1.3069087266921997,
        -0.8570306301116943
      ],
      "type": "VEC3"
    },
    {
      "bufferView": 2,
      "byteOffset": 1854420,
      "componentType": 5126,
      "count": 23471,
      "max": [
        1.0,
        1.0,
        1.0
      ],
      "min": [
        -1.0,
        -1.0,
        -1.0
      ],
      "type": "VEC3"
    },
    {
      "bufferView": 1,
      "byteOffset": 524256,
      "componentType": 5126,
      "count": 23471,
      "max": [
        0.9241248369216919,
        0.823194146156311
      ],
      "min": [
        0.11157023906707764,
        -0.0007212103810161352
      ],
      "type": "VEC2"
    },
    {
      "bufferView": 0,
      "byteOffset": 580296,
      "componentType": 5125,
      "count": 53646,
      "type": "SCALAR"
    },
    {
      "bufferView": 2,
      "byteOffset": 2136072,
      "componentType": 5126,
      "count": 4608,
      "max": [
        0.42136895656585693,
        0.2627292275428772,
        -0.008371753618121147
      ],
      "min": [
        -0.3895907998085022,
        -1.2599037885665894,
        -0.817556619644165
      ],
      "type": "VEC3"
    },
    {
      "bufferView": 2,
      "byteOffset": 2191368,
      "componentType": 5126,
      "count": 4608,
      "max": [
        1.0,
        5.978930403216509e-06,
        1.0
      ],
      "min": [
        -1.0,
        -3.1318297715188237e-06,
        -1.0
      ],
      "type": "VEC3"
    },
    {
      "bufferView": 1,
      "byteOffset": 712024,
      "componentType": 5126,
      "count": 4608,
      "max": [
        0.5005193948745728,
        0.5737802982330322
      ],
      "min": [
        0.4471460282802582,
        0.27591556310653687
      ],
      "type": "VEC2"
    },
    {
      "bufferView": 1,
      "byteOffset": 748888,
      "componentType": 5126,
      "count": 4608,
      "max": [
        0.5005193948745728,
        0.5737802982330322
      ],
      "min": [
        0.4471460282802582,
        0.27591556310653687
      ],
      "type": "VEC2"
    },
    {
      "bufferView": 0,
      "byteOffset": 794880,
      "componentType": 5125,
      "count": 6912,
      "type": "SCALAR"
    }
  ],
  "asset": {
    "extras": {
      "author": "carlcapu9 (https://sketchfab.com/carlcapu9)",
      "license": "CC-BY-4.0 (http://creativecommons.org/licenses/by/4.0/)",
      "source": "https://sketchfab.com/3d-models/new-york-background-building-1-85bb3befb9db491fa2e834534ac093c4",
      "title": "New York Background Building 1#"
    },
    "generator": "Sketchfab-15.37.0",
    "version": "2.0"
  },
  "bufferViews": [
    {
      "buffer": 0,
      "byteLength": 822528,
      "name": "floatBufferViews",
      "target": 34963
    },
    {
      "buffer": 0,
      "byteLength": 785752,
      "byteOffset": 822528,
      "byteStride": 8,
      "name": "floatBufferViews",
      "target": 34962
    },
    {
      "buffer": 0,
      "byteLength": 2246664,
      "byteOffset": 1608280,
      "byteStride": 12,
      "name": "floatBufferViews",
      "target": 34962
    }
  ],
  "buffers": [
    {
      "byteLength": 3854944,
      "uri": "scene.bin"
    }
  ],
  "images": [
    {
      "uri": "textures/Building_7_baseColor.jpeg"
    }
  ],
  "materials": [
    {
      "doubleSided": true,
      "name": "Building_7",
      "pbrMetallicRoughness": {
        "baseColorTexture": {
          "index": 0
        },
        "metallicFactor": 0.0
      }
    },
    {
      "doubleSided": true,
      "name": "Building_7_Glass",
      "pbrMetallicRoughness": {
        "baseColorTexture": {
          "index": 0
        },
        "metallicFactor": 0.0,
        "roughnessFactor": 0.0
      }
    }
  ],
  "meshes": [
    {
      "name": "TexturesCom_BuildingsTallHouse0032_M.001_Building_7_0",
      "primitives": [
        {
          "attributes": {
            "NORMAL": 1,
            "POSITION": 0,
            "TEXCOORD_0": 2
          },
          "indices": 3,
          "material": 0,
          "mode": 4
        }
      ]
    },
    {
      "name": "TexturesCom_BuildingsTallHouse0032_M.001_Building_7_0",
      "primitives": [
        {
          "attributes": {
            "NORMAL": 5,
            "POSITION": 4,
            "TEXCOORD_0": 6
          },
          "indices": 7,
          "material": 0,
          "mode": 4
        }
      ]
    },
    {
      "name": "TexturesCom_BuildingsTallHouse0032_M.001_Building_7 Glass_0",
      "primitives": [
        {
          "attributes": {
            "NORMAL": 9,
            "POSITION": 8,
            "TEXCOORD_0": 10,
            "TEXCOORD_1": 11
          },
          "indices": 12,
          "material": 1,
          "mode": 4
        }
      ]
    }
  ],
  "nodes": [
    {
      "children": [
        1
      ],
      "matrix": [
        1.0,
        0.0,
        0.0,
        0.0,
        0.0,
        2.220446049250313e-16,
        -1.0,
        0.0,
        0.0,
        1.0,
        2.220446049250313e-16,
        0.0,
        0.0,
        0.0,
        0.0,
        1.0
      ],
      "name": "Sketchfab_model"
    },
    {
      "children": [
        2
      ],
      "matrix": [
        0.009999999776482582,
        0.0,
        0.0,
        0.0,
        0.0,
        0.0,
        0.009999999776482582,
        0.0,
        0.0,
        -0.009999999776482582,
        0.0,
        0.0,
        0.0,
        0.0,
        0.0,
        1.0
      ],
      "name": "0cf7b9f0da7042bbaf0611358c7ac449.fbx"
    },
    {
      "children": [
        3
      ],
      "name": "RootNode"
    },
    {
      "children": [
        4,
        5,
        6
      ],
      "matrix": [
        2429.588623046875,
        0.0,
        0.0,
        0.0,
        0.0,
        2429.5886230468427,
        0.0003958302080698546,
        0.0,
        0.0,
        -0.0003958302080698546,
        2429.5886230468427,
        0.0,
        -3615.013916015625,
        3215.119873046875,
        -580.2318725585938,
        1.0
      ],
      "name": "TexturesCom_BuildingsTallHouse0032_M.001"
    },
    {
      "mesh": 0,
      "name": "TexturesCom_BuildingsTallHouse0032_M.001_Building_7_0"
    },
    {
      "mesh": 1,
      "name": "TexturesCom_BuildingsTallHouse0032_M.001_Building_7_0"
    },
    {
      "mesh": 2,
      "name": "TexturesCom_BuildingsTallHouse0032_M.001_Building_7 Glass_0"
    }
  ],
  "samplers": [
    {
      "magFilter": 9729,
      "minFilter": 9987,
      "wrapS": 10497,
      "wrapT": 10497
    }
  ],
  "scene": 0,
  "scenes": [
    {
      "name": "Sketchfab_Scene",
      "nodes": [
        0
      ]
    }
  ],
  "textures": [
    {
      "sampler": 0,
      "source": 0
    }
  ]
}
