{
  "accessors": [
    {
      "bufferView": 2,
      "componentType": 5126,
      "count": 8638,
      "max": [
        1.5852458477020264,
        3.6903631687164307,
        1.5852458477020264
      ],
      "min": [
        -1.5852458477020264,
        0.0,
        -1.5852458477020264
      ],
      "type": "VEC3"
    },
    {
      "bufferView": 2,
      "byteOffset": 103656,
      "componentType": 5126,
      "count": 8638,
      "max": [
        1.0,
        1.0,
        1.0
      ],
      "min": [
        -1.0,
        -1.0,
        -1.0
      ],
      "type": "VEC3"
    },
    {
      "bufferView": 3,
      "componentType": 5126,
      "count": 8638,
      "max": [
        1.0,
        1.0,
        1.0,
        1.0
      ],
      "min": [
        -1.0,
        -1.0,
        -1.0,
        -1.0
      ],
      "type": "VEC4"
    },
    {
      "bufferView": 1,
      "componentType": 5126,
      "count": 8638,
      "max": [
        1.1332409381866455,
        1.1363675594329834
      ],
      "min": [
        -0.13597196340560913,
        -0.1363675594329834
      ],
      "type": "VEC2"
    },
    {
      "bufferView": 1,
      "byteOffset": 69104,
      "componentType": 5126,
      "count": 8638,
      "max": [
        1.1332409381866455,
        1.1363675594329834
      ],
      "min": [
        -0.13597196340560913,
        -0.1363675594329834
      ],
      "type": "VEC2"
    },
    {
      "bufferView": 1,
      "byteOffset": 138208,
      "componentType": 5126,
      "count": 8638,
      "max": [
        1.1332409381866455,
        1.1363675594329834
      ],
      "min": [
        -0.13597196340560913,
        -0.1363675594329834
      ],
      "type": "VEC2"
    },
    {
      "bufferView": 1,
      "byteOffset": 207312,
      "componentType": 5126,
      "count": 8638,
      "max": [
        1.1332409381866455,
        1.1363675594329834
      ],
      "min": [
        -0.13597196340560913,
        -0.1363675594329834
      ],
      "type": "VEC2"
    },
    {
      "bufferView": 0,
      "componentType": 5125,
      "count": 35136,
      "type": "SCALAR"
    },
    {
      "bufferView": 2,
      "byteOffset": 207312,
      "componentType": 5126,
      "count": 1408,
      "max": [
        1.3790457248687744,
        3.2282209396362305,
        1.3790457248687744
      ],
      "min": [
        -1.3790457248687744,
        0.2066992074251175,
        -1.3790457248687744
      ],
      "type": "VEC3"
    },
    {
      "bufferView": 2,
      "byteOffset": 224208,
      "componentType": 5126,
      "count": 1408,
      "max": [
        0.0,
        1.0,
        0.0
      ],
      "min": [
        0.0,
        1.0,
        0.0
      ],
      "type": "VEC3"
    },
    {
      "bufferView": 1,
      "byteOffset": 276416,
      "componentType": 5126,
      "count": 1408,
      "max": [
        0.0,
        1.0
      ],
      "min": [
        0.0,
        1.0
      ],
      "type": "VEC2"
    },
    {
      "bufferView": 0,
      "byteOffset": 140544,
      "componentType": 5125,
      "count": 4200,
      "type": "SCALAR"
    },
    {
      "bufferView": 2,
      "byteOffset": 241104,
      "componentType": 5126,
      "count": 768,
      "max": [
        2.1209332942962646,
        0.19810037314891815,
        2.1209335327148438
      ],
      "min": [
        -2.1209332942962646,
        -0.19412517547607422,
        -2.1209330558776855
      ],
      "type": "VEC3"
    },
    {
      "bufferView": 2,
      "byteOffset": 250320,
      "componentType": 5126,
      "count": 768,
      "max": [
        1.0,
        1.0,
        1.0
      ],
      "min": [
        -1.0,
        -1.0,
        -1.0
      ],
      "type": "VEC3"
    },
    {
      "bufferView": 1,
      "byteOffset": 287680,
      "componentType": 5126,
      "count": 768,
      "max": [
        0.9999999403953552,
        1.0
      ],
      "min": [
        0.0,
        0.0
      ],
      "type": "VEC2"
    },
    {
      "bufferView": 0,
      "byteOffset": 157344,
      "componentType": 5125,
      "count": 1872,
      "type": "SCALAR"
    }
  ],
  "asset": {
    "extras": {
      "author": "BriStor (https://sketchfab.com/BriStor)",
      "license": "CC-BY-NC-4.0 (http://creativecommons.org/licenses/by-nc/4.0/)",
      "source": "https://sketchfab.com/3d-models/fountain-70bb8b7cd5744fd5a55404170237007b",
      "title": "Fountain"
    },
    "generator": "Sketchfab-17.3.0",
    "version": "2.0"
  },
  "bufferViews": [
    {
      "buffer": 0,
      "byteLength": 164832,
      "name": "floatBufferViews",
      "target": 34963
    },
    {
      "buffer": 0,
      "byteLength": 293824,
      "byteOffset": 164832,
      "byteStride": 8,
      "name": "floatBufferViews",
      "target": 34962
    },
    {
      "buffer": 0,
      "byteLength": 259536,
      "byteOffset": 458656,
      "byteStride": 12,
      "name": "floatBufferViews",
      "target": 34962
    },
    {
      "buffer": 0,
      "byteLength": 138208,
      "byteOffset": 718192,
      "byteStride": 16,
      "name": "floatBufferViews",
      "target": 34962
    }
  ],
  "buffers": [
    {
      "byteLength": 856400,
      "uri": "scene.bin"
    }
  ],
  "images": [
    {
      "uri": "textures/Stone_baseColor.jpeg"
    },
    {
      "uri": "textures/Stone_metallicRoughness.png"
    },
    {
      "uri": "textures/Stone_normal.jpeg"
    },
    {
      "uri": "textures/Bench_baseColor.jpeg"
    }
  ],
  "materials": [
    {
      "doubleSided": true,
      "name": "Stone",
      "normalTexture": {
        "index": 2
      },
      "pbrMetallicRoughness": {
        "baseColorTexture": {
          "index": 0
        },
        "metallicRoughnessTexture": {
          "index": 1
        }
      }
    },
    {
      "alphaMode": "BLEND",
      "doubleSided": true,
      "name": "Material",
      "pbrMetallicRoughness": {
        "baseColorFactor": [
          0.0931675,
          0.800016,
          0.353663,
          0.2
        ],
        "metallicFactor": 0.0,
        "roughnessFactor": 0.3
      }
    },
    {
      "doubleSided": true,
      "name": "Bench",
      "pbrMetallicRoughness": {
        "baseColorTexture": {
          "index": 3
        },
        "metallicFactor": 0.0,
        "roughnessFactor": 0.5
      }
    }
  ],
  "meshes": [
    {
      "name": "Object_0",
      "primitives": [
        {
          "attributes": {
            "NORMAL": 1,
            "POSITION": 0,
            "TANGENT": 2,
            "TEXCOORD_0": 3,
            "TEXCOORD_1": 4,
            "TEXCOORD_2": 5,
            "TEXCOORD_3": 6
          },
          "indices": 7,
          "material": 0,
          "mode": 4
        }
      ]
    },
    {
      "name": "Object_1",
      "primitives": [
        {
          "attributes": {
            "NORMAL": 9,
            "POSITION": 8,
            "TEXCOORD_0": 10
          },
          "indices": 11,
          "material": 1,
          "mode": 4
        }
      ]
    },
    {
      "name": "Object_2",
      "primitives": [
        {
          "attributes": {
            "NORMAL": 13,
            "POSITION": 12,
            "TEXCOORD_0": 14
          },
          "indices": 15,
          "material": 2,
          "mode": 4
        }
      ]
    }
  ],
  "nodes": [
    {
      "children": [
        1
      ],
      "matrix": [
        1.0,
        0.0,
        0.0,
        0.0,
        0.0,
        2.220446049250313e-16,
        -1.0,
        0.0,
        0.0,
        1.0,
        2.220446049250313e-16,
        0.0,
        0.0,
        0.0,
        0.0,
        1.0
      ],
      "name": "Sketchfab_model"
    },
    {
      "children": [
        2
      ],
      "name": "root"
    },
    {
      "children": [
        3,
        6
      ],
      "matrix": [
        1.0,
        0.0,
        0.0,
        0.0,
        0.0,
        2.220446049250313e-16,
        1.0,
        0.0,
        0.0,
        -1.0,
        2.220446049250313e-16,
        0.0,
        0.0,
        0.0,
        0.0,
        1.0
      ],
      "name": "GLTF_SceneRootNode"
    },
    {
      "children": [
        4,
        5
      ],
      "name": "Fountain_0"
    },
    {
      "mesh": 0,
      "name": "Object_4"
    },
    {
      "mesh": 1,
      "name": "Object_5"
    },
    {
      "children": [
        7
      ],
      "matrix": [
        1.0,
        0.0,
        0.0,
        0.0,
        0.0,
        1.0,
        0.0,
        0.0,
        0.0,
        0.0,
        1.0,
        0.0,
        0.0,
        0.20070406794548035,
        0.0,
        1.0
      ],
      "name": "Bench_1"
    },
    {
      "mesh": 2,
      "name": "Object_7"
    }
  ],
  "samplers": [
    {
      "magFilter": 9729,
      "minFilter": 9987,
      "wrapS": 10497,
      "wrapT": 10497
    }
  ],
  "scene": 0,
  "scenes": [
    {
      "name": "Sketchfab_Scene",
      "nodes": [
        0
      ]
    }
  ],
  "textures": [
    {
      "sampler": 0,
      "source": 0
    },
    {
      "sampler": 0,
      "source": 1
    },
    {
      "sampler": 0,
      "source": 2
    },
    {
      "sampler": 0,
      "source": 3
    }
  ]
}
